<?xml version="1.0" encoding="UTF-8" standalone="no"?>
<svg
   height="535"
   width="550"
   viewBox="-74.4 -120.90175 295.53333 485.11863"
   version="1.1"
   id="svg1"
   sodipodi:docname="github.svg"
   inkscape:version="1.3.2 (091e20ef0f, 2023-11-25)"
   xmlns:inkscape="http://www.inkscape.org/namespaces/inkscape"
   xmlns:sodipodi="http://sodipodi.sourceforge.net/DTD/sodipodi-0.dtd"
   xmlns="http://www.w3.org/2000/svg"
   xmlns:svg="http://www.w3.org/2000/svg">
  <defs
     id="defs1" />
  <sodipodi:namedview
     id="namedview1"
     pagecolor="#ffffff"
     bordercolor="#000000"
     borderopacity="0.25"
     inkscape:showpageshadow="2"
     inkscape:pageopacity="0.0"
     inkscape:pagecheckerboard="0"
     inkscape:deskcolor="#d1d1d1"
     inkscape:zoom="0.74953319"
     inkscape:cx="550.34254"
     inkscape:cy="428.26656"
     inkscape:window-width="1920"
     inkscape:window-height="1052"
     inkscape:window-x="0"
     inkscape:window-y="0"
     inkscape:window-maximized="1"
     inkscape:current-layer="svg1" />
  <ellipse
     style="fill:#ffffff;stroke-width:0.906764"
     id="path2"
     cx="72.104256"
     cy="132.68466"
     rx="245.47961"
     ry="236.3638" />
  <path
     d="m -8.73333,269.25385 c 0,2 -2.3,3.6 -5.2,3.6 -3.3,0.3 -5.6,-1.3 -5.6,-3.6 0,-2 2.3,-3.6 5.2,-3.6 3,-0.3 5.6,1.3 5.6,3.6 z m -31.1,-4.5 c -0.7,2 1.3,4.3 4.3,4.9 2.6,1 5.6,0 6.2,-2 0.6,-2 -1.3,-4.3 -4.3,-5.2 -2.6,-0.7 -5.5,0.3 -6.2,2.3 z m 44.2,-1.7 c -2.9,0.7 -4.9,2.6 -4.6,4.9 0.3,2 2.9,3.3 5.9,2.6 2.9,-0.7 4.9,-2.6 4.6,-4.6 -0.3,-1.9 -3,-3.2 -5.9,-2.9 z m 65.799998,-383.2 c -138.699998,0 -244.799998,105.299994 -244.799998,244 0,110.9 69.8,205.8 169.5,239.2 12.8,2.3 17.3,-5.6 17.3,-12.1 0,-6.2 -0.3,-40.4 -0.3,-61.4 0,0 -70,15 -84.7,-29.8 0,0 -11.4,-29.1 -27.8,-36.6 0,0 -22.9,-15.7 1.599995,-15.4 0,0 24.900005,2 38.600005,25.8 21.9,38.6 58.6,27.5 72.9,20.9 2.3,-16 8.799998,-27.1 15.999998,-33.7 -55.899998,-6.2 -112.299998,-14.3 -112.299998,-110.5 0,-27.500006 7.6,-41.300006 23.6,-58.900006 -2.6,-6.5 -11.1,-33.3 2.6,-67.9 20.9,-6.5 69,27 69,27 19.999998,-5.5999997 41.499998,-8.4999997 62.799998,-8.4999997 21.3,0 42.799992,2.9 62.799992,8.4999997 0,0 48.1,-33.6 69,-27 13.7,34.7 5.2,61.4 2.6,67.9 16,17.7 25.8,31.5 25.8,58.900006 0,96.5 -58.9,104.2 -114.8,110.5 9.2,7.9 17,22.9 17,46.4 0,33.7 -0.3,75.4 -0.3,83.6 0,6.5 4.6,14.4 17.3,12.1 100,-33.2 167.8,-128.1 167.8,-239 0,-138.700006 -112.5,-244 -251.199992,-244 z m -147.599998,344.9 c -1.3,1 -1,3.3 0.7,5.2 1.6,1.6 3.9,2.3 5.2,1 1.3,-1 1,-3.3 -0.7,-5.2 -1.6,-1.6 -3.9,-2.3 -5.2,-1 z m -10.8,-8.1 c -0.7,1.3 0.3,2.9 2.3,3.9 1.6,1 3.6,0.7 4.3,-0.7 0.7,-1.3 -0.3,-2.9 -2.3,-3.9 -2,-0.6 -3.6,-0.3 -4.3,0.7 z m 32.4,35.6 c -1.6,1.3 -1,4.3 1.3,6.2 2.3,2.3 5.2,2.6 6.5,1 1.3,-1.3 0.7,-4.3 -1.3,-6.2 -2.2,-2.3 -5.2,-2.6 -6.5,-1 z m -11.4,-14.7 c -1.6,1 -1.6,3.6 0,5.9 1.6,2.3 4.3,3.3 5.6,2.3 1.6,-1.3 1.6,-3.9 0,-6.2 -1.4,-2.3 -4,-3.3 -5.6,-2 z"
     id="path1" />
</svg>
